<svg xmlns="http://www.w3.org/2000/svg" xmlns:xlink="http://www.w3.org/1999/xlink" preserveAspectRatio="xMidYMid" width="69" height="51" viewBox="0 0 46 34">
  <defs>
    <style>
      .cls-1 {
        stroke: #000;
        stroke-width: 3px;
        fill: none;
      }

      .cls-1, .cls-2 {
        fill-rule: evenodd;
      }

      .cls-2 {
        fill: #000;
      }
    </style>
  </defs>
  <path d="M38.000,34.000 L20.519,33.950 C20.519,33.950 15.800,33.950 14.079,32.025 L0.939,19.275 C-0.326,18.010 -0.326,15.957 0.939,14.691 L14.084,1.939 C16.343,-0.444 20.588,0.037 20.588,0.037 L38.000,0.000 C42.419,0.000 46.000,3.582 46.000,8.000 L46.000,26.000 C46.000,30.418 42.419,34.000 38.000,34.000 Z" class="cls-1"/>
  <path d="M20.634,9.341 L21.365,8.659 L35.366,23.659 L34.634,24.341 L20.634,9.341 Z" class="cls-2"/>
  <path d="M35.301,9.010 L35.997,9.753 L20.699,23.990 L20.003,23.247 L35.301,9.010 Z" class="cls-2"/>
</svg>
